<svg width="57" height="33" xmlns="http://www.w3.org/2000/svg" xmlns:xlink="http://www.w3.org/1999/xlink"><g id="Canvas" transform="translate(-2233 -679)"><g id="voucher"><g id="Group"><g id="Group"><use xlink:href="#path0_fill" transform="translate(2233 679.517)" fill="#FF9D6B" id="Vector"/></g></g><g id="Group"><g id="Group"><use xlink:href="#path1_fill" transform="translate(2272.87 689.106)" fill="#FF9D6B" id="Vector"/></g></g><g id="Group"><g id="Group"><use xlink:href="#path2_fill" transform="translate(2272.87 698.695)" fill="#FF9D6B" id="Vector"/></g></g><g id="Group"><g id="Group"><use xlink:href="#path3_fill" transform="translate(2243.44 685.27)" fill="#FF9D6B" id="Vector"/></g></g></g></g><defs><path id="path0_fill" d="M55.005 0H42.663a.895.895 0 0 0-.89.899v.959c0 .562-.452 1.019-1.009 1.019a1.015 1.015 0 0 1-1.008-1.02V.9a.895.895 0 0 0-.89-.899H1.839A1.85 1.85 0 0 0 0 1.858v28.767a1.85 1.85 0 0 0 1.84 1.858h37.026c.491 0 .89-.403.89-.9v-.958c0-.562.452-1.019 1.009-1.019.556 0 1.008.457 1.008 1.019v.959c0 .496.399.899.89.899h12.343a1.85 1.85 0 0 0 1.84-1.858V1.858A1.851 1.851 0 0 0 55.005 0zm.06 15.342H29.372a.895.895 0 0 0-.89.9c0 .496.398.898.89.898h25.693v13.485a.06.06 0 0 1-.06.06H43.553v-.06a2.819 2.819 0 0 0-1.898-2.669v-2.125c0-.497-.399-.9-.89-.9a.895.895 0 0 0-.89.9v2.125a2.819 2.819 0 0 0-1.9 2.669v.06H21.718v-5.813a.895.895 0 0 0-.89-.9.895.895 0 0 0-.89.9v5.813H1.84a.06.06 0 0 1-.059-.06V17.14h10.503c.491 0 .89-.402.89-.899a.895.895 0 0 0-.89-.899H1.78V1.858a.06.06 0 0 1 .06-.06h18.097v5.813c0 .497.399.9.89.9.492 0 .89-.403.89-.9V1.798h16.259v.06c0 1.239.796 2.293 1.898 2.669v2.125c0 .497.399.9.89.9.492 0 .89-.403.89-.9V4.527a2.819 2.819 0 0 0 1.9-2.67v-.059h11.451a.06.06 0 0 1 .06.06v13.484z"/><path id="path1_fill" d="M.89 0A.895.895 0 0 0 0 .899v1.918c0 .496.398.899.89.899s.89-.403.89-.9V.9A.895.895 0 0 0 .89 0z"/><path id="path2_fill" d="M.89 0A.895.895 0 0 0 0 .899v1.918c0 .496.398.899.89.899s.89-.403.89-.9V.9A.895.895 0 0 0 .89 0z"/><path id="path3_fill" d="M19.496 13.489c-1.283-1.296-3.803-2.328-5.839-3 2.036-.674 4.556-1.706 5.839-3.002a4.38 4.38 0 0 0 1.272-3.101 4.38 4.38 0 0 0-1.272-3.102A4.291 4.291 0 0 0 16.426 0c-1.16 0-2.25.456-3.071 1.285-1.283 1.295-2.305 3.84-2.971 5.897-.667-2.057-1.688-4.602-2.971-5.897A4.292 4.292 0 0 0 4.343 0a4.29 4.29 0 0 0-3.071 1.285A4.379 4.379 0 0 0 0 4.385a4.38 4.38 0 0 0 1.272 3.102c1.283 1.296 3.803 2.328 5.838 3.001-2.035.673-4.555 1.705-5.838 3.001A4.379 4.379 0 0 0 0 16.59a4.38 4.38 0 0 0 1.272 3.102 4.292 4.292 0 0 0 3.07 1.284c1.16 0 2.25-.456 3.071-1.284 1.283-1.296 2.305-3.841 2.971-5.898.667 2.057 1.688 4.602 2.971 5.898a4.292 4.292 0 0 0 3.07 1.284c1.16 0 2.251-.456 3.072-1.284a4.379 4.379 0 0 0 1.271-3.102 4.38 4.38 0 0 0-1.272-3.101zM2.53 6.216a2.585 2.585 0 0 1-.75-1.83c0-.691.267-1.341.75-1.83a2.533 2.533 0 0 1 1.812-.758c.685 0 1.328.27 1.812.758 1.274 1.286 2.385 4.525 2.99 6.68-2.133-.61-5.338-1.732-6.614-3.02zM6.154 18.42a2.533 2.533 0 0 1-1.812.758 2.533 2.533 0 0 1-1.812-.758 2.584 2.584 0 0 1-.75-1.83c0-.691.267-1.341.75-1.83 1.274-1.286 4.48-2.409 6.614-3.019-.604 2.154-1.715 5.391-2.99 6.68zm8.46-15.864a2.533 2.533 0 0 1 1.811-.758c.685 0 1.328.27 1.812.758.484.489.75 1.139.75 1.83 0 .691-.266 1.341-.75 1.83-1.273 1.286-4.48 2.41-6.613 3.02.604-2.154 1.714-5.392 2.99-6.68zm3.623 15.864a2.533 2.533 0 0 1-1.811.758 2.532 2.532 0 0 1-1.812-.758c-1.274-1.286-2.386-4.525-2.99-6.68 2.133.61 5.338 1.732 6.613 3.02.484.489.751 1.139.751 1.83 0 .692-.267 1.341-.75 1.83z"/></defs></svg>