<svg width="93" height="46" viewBox="0 0 93 46" fill="none" xmlns="http://www.w3.org/2000/svg">
<g opacity="0.4">
<path d="M37.9554 37.5126C37.888 37.5126 37.8591 37.4785 37.8591 37.4151V37.1715C37.8591 37.1033 37.8928 37.0741 37.9554 37.0741H39.3623C39.5791 37.0741 39.7236 37.0497 39.8055 37.001C39.8826 36.9523 39.9211 36.8597 39.9211 36.733C39.9211 36.6063 39.8922 36.5186 39.8296 36.4748C39.767 36.4309 39.6369 36.3968 39.4394 36.3773L38.6155 36.2945C38.312 36.2653 38.1 36.1873 37.9795 36.0606C37.8591 35.9339 37.8013 35.7439 37.8013 35.4906C37.8013 35.2274 37.8784 35.0374 38.0373 34.9156C38.1963 34.7938 38.4469 34.7305 38.7889 34.7305H40.1572C40.2247 34.7305 40.2536 34.7646 40.2536 34.8279V35.0715C40.2536 35.1397 40.2199 35.169 40.1572 35.169H38.7986C38.601 35.169 38.4613 35.1933 38.3842 35.2469C38.3023 35.3005 38.2638 35.3931 38.2638 35.5198C38.2638 35.6367 38.2927 35.7196 38.3457 35.7683C38.4035 35.8121 38.5191 35.8462 38.6926 35.8657L39.5068 35.9437C39.8441 35.9778 40.0753 36.0606 40.2006 36.1922C40.3259 36.3189 40.3885 36.5089 40.3885 36.7671C40.3885 37.0351 40.3066 37.2251 40.1476 37.3421C39.9886 37.4541 39.7236 37.5126 39.3526 37.5126H37.9554Z" fill="#4470B4"/>
<path d="M47.9428 37.5125C47.5189 37.5125 47.2346 37.4297 47.0804 37.264C46.9263 37.0984 46.854 36.8304 46.854 36.4601V35.1543H46.5505C46.483 35.1543 46.4541 35.1202 46.4541 35.0568V34.823C46.4541 34.7548 46.4878 34.7255 46.5505 34.7255C46.6613 34.7255 46.7432 34.7207 46.7914 34.7109C46.8395 34.7012 46.8829 34.6719 46.9214 34.6281C46.9552 34.5794 46.9793 34.5258 46.9841 34.4527C46.9889 34.3845 46.9937 34.2724 46.9937 34.1165C46.9937 34.0483 47.0274 34.0142 47.0901 34.0142H47.2153C47.2828 34.0142 47.3117 34.0483 47.3117 34.1116V34.7255H48.4439C48.5114 34.7255 48.5403 34.7596 48.5403 34.823V35.0568C48.5403 35.1251 48.5065 35.1543 48.4439 35.1543H47.3117V36.4991C47.3117 36.7232 47.3551 36.8791 47.4418 36.9571C47.5285 37.0399 47.6971 37.0789 47.9428 37.0789H48.4439C48.5114 37.0789 48.5403 37.113 48.5403 37.1763V37.4102C48.5403 37.4784 48.5065 37.5077 48.4439 37.5077H47.9428V37.5125Z" fill="#4470B4"/>
<path d="M57.1114 34.823C57.1114 34.7548 57.1451 34.7256 57.2078 34.7256H57.4727C57.5402 34.7256 57.5691 34.7597 57.5691 34.823V37.42C57.5691 37.4882 57.5354 37.5175 57.4727 37.5175H57.2078C57.1403 37.5175 57.1114 37.4833 57.1114 37.42V37.152C57.0054 37.3956 56.7404 37.5223 56.3309 37.5223H55.8684C55.4781 37.5223 55.2132 37.4346 55.0686 37.2592C54.9241 37.0838 54.8518 36.8061 54.8518 36.4163V34.823C54.8518 34.7548 54.8855 34.7256 54.9482 34.7256H55.2131C55.2806 34.7256 55.3095 34.7597 55.3095 34.823V36.4601C55.3095 36.7135 55.3481 36.884 55.4203 36.962C55.4926 37.04 55.6468 37.0789 55.8732 37.0789H56.5429C56.7549 37.0789 56.8994 37.04 56.9813 36.9571C57.0632 36.8792 57.1066 36.7135 57.1066 36.4601V34.823H57.1114Z" fill="#4470B4"/>
<path d="M66.3571 33.8387C66.3571 33.7704 66.3908 33.7412 66.4535 33.7412H66.7184C66.7859 33.7412 66.8148 33.7753 66.8148 33.8387V37.4101C66.8148 37.4783 66.7811 37.5075 66.7184 37.5075H66.4535C66.386 37.5075 66.3571 37.4734 66.3571 37.4101V37.147C66.2993 37.2737 66.2126 37.3662 66.0921 37.4247C65.9717 37.4832 65.803 37.5124 65.5814 37.5124H64.9936C64.5986 37.5124 64.3336 37.4247 64.189 37.2542C64.0445 37.0836 63.9771 36.8059 63.9771 36.4259V35.8266C63.9771 35.4368 64.0493 35.1542 64.189 34.9837C64.3336 34.8131 64.5986 34.7254 64.9936 34.7254H65.5814C65.803 34.7254 65.9717 34.7547 66.0921 34.8131C66.2126 34.8716 66.3041 34.9642 66.3571 35.0909V33.8387ZM65.7982 37.069C66.0054 37.069 66.1499 37.0301 66.2318 36.9472C66.3137 36.8693 66.3571 36.7036 66.3571 36.4551V35.7779C66.3571 35.5245 66.3137 35.3588 66.2318 35.276C66.1499 35.1932 66.0054 35.1542 65.7982 35.1542H65.0033C64.772 35.1542 64.6227 35.1932 64.5504 35.2711C64.4781 35.3491 64.4396 35.5196 64.4396 35.773V36.4502C64.4396 36.6987 64.4781 36.8644 64.5504 36.9424C64.6227 37.0203 64.7768 37.0642 65.0033 37.0642H65.7982V37.069Z" fill="#4470B4"/>
<path d="M73.3766 34.4087C73.3092 34.4087 73.2803 34.3746 73.2803 34.3113V33.8387C73.2803 33.7704 73.314 33.7412 73.3766 33.7412H73.6416C73.7091 33.7412 73.738 33.7753 73.738 33.8387V34.3113C73.738 34.3795 73.7043 34.4087 73.6416 34.4087H73.3766ZM73.3766 37.5124C73.3092 37.5124 73.2803 37.4783 73.2803 37.415V34.818C73.2803 34.7498 73.314 34.7206 73.3766 34.7206H73.6416C73.7091 34.7206 73.738 34.7547 73.738 34.818V37.415C73.738 37.4832 73.7043 37.5124 73.6416 37.5124H73.3766Z" fill="#4470B4"/>
<path d="M81.1577 37.5126C80.7626 37.5126 80.4976 37.4249 80.3531 37.2543C80.2086 37.0838 80.1411 36.8012 80.1411 36.4114V35.8121C80.1411 35.4321 80.2134 35.1544 80.3531 34.9838C80.4976 34.8133 80.7626 34.7256 81.1577 34.7256H81.9719C82.367 34.7256 82.632 34.8133 82.7765 34.9838C82.921 35.1544 82.9885 35.4321 82.9885 35.8121V36.4114C82.9885 36.8012 82.9162 37.0838 82.7765 37.2543C82.632 37.4249 82.367 37.5126 81.9719 37.5126H81.1577ZM81.1673 37.0692H81.9623C82.1935 37.0692 82.3429 37.0302 82.4152 36.9474C82.4874 36.8694 82.526 36.6989 82.526 36.4455V35.7683C82.526 35.5198 82.4874 35.3541 82.4152 35.2762C82.3429 35.1982 82.1887 35.1592 81.9623 35.1592H81.1673C80.9361 35.1592 80.7867 35.1982 80.7144 35.2762C80.6422 35.3541 80.6036 35.5198 80.6036 35.7683V36.4455C80.6036 36.6989 80.6422 36.8694 80.7144 36.9474C80.7867 37.0302 80.9361 37.0692 81.1673 37.0692Z" fill="#4470B4"/>
<path d="M33.8312 29.4095C32.1208 29.4095 30.9597 29.0733 30.343 28.4058C29.7263 27.7383 29.418 26.6518 29.418 25.1511V19.8646H28.1846C27.9196 19.8646 27.7896 19.733 27.7896 19.4601V18.5149C27.7896 18.2469 27.9196 18.1105 28.1846 18.1105C28.6327 18.1105 28.9603 18.091 29.1578 18.052C29.3554 18.0131 29.5288 17.8961 29.6734 17.711C29.8179 17.5258 29.9046 17.2871 29.9335 17.0093C29.9576 16.7268 29.9721 16.2736 29.9721 15.6451C29.9721 15.3625 30.1021 15.2212 30.3671 15.2212H30.8826C31.1476 15.2212 31.2825 15.3527 31.2825 15.6207V18.1105H35.8547C36.1197 18.1105 36.2546 18.2469 36.2546 18.5149V19.4601C36.2546 19.7281 36.1197 19.8646 35.8547 19.8646H31.2825V25.3119C31.2825 26.223 31.456 26.8418 31.8077 27.1731C32.1594 27.4996 32.8291 27.6652 33.8264 27.6652H35.8547C36.1197 27.6652 36.2546 27.7968 36.2546 28.0647V29.01C36.2546 29.278 36.1197 29.4144 35.8547 29.4144H33.8312V29.4095Z" fill="#C7C7C7"/>
<path d="M41.9156 29.4094C40.3257 29.4094 39.2416 29.0635 38.6683 28.3667C38.0902 27.67 37.8059 26.5298 37.8059 24.9512V22.5199C37.8059 20.9802 38.095 19.8596 38.6683 19.1628C39.2465 18.4661 40.3257 18.1201 41.9156 18.1201H44.7196C46.3095 18.1201 47.3935 18.4709 47.9669 19.1628C48.545 19.8596 48.8293 20.9802 48.8293 22.5199V24.3275C48.8293 24.5955 48.6992 24.727 48.4342 24.727H39.6704V25.1071C39.6704 26.14 39.8198 26.8173 40.1185 27.1389C40.4172 27.4604 41.0291 27.6212 41.9589 27.6212H47.5429C47.8079 27.6212 47.9428 27.7528 47.9428 28.0208V29.005C47.9428 29.273 47.8079 29.4094 47.5429 29.4094H41.9156ZM39.6704 23.0168H46.9647V22.3737C46.9647 21.37 46.8154 20.7073 46.5167 20.3858C46.218 20.0642 45.6061 19.9034 44.6811 19.9034H41.9589C41.0291 19.9034 40.4172 20.0642 40.1185 20.3858C39.8198 20.7073 39.6704 21.37 39.6704 22.3737V23.0168Z" fill="#C7C7C7"/>
<path d="M56.1815 18.1152H58.0075C58.2725 18.1152 58.4074 18.2517 58.4074 18.5196V19.5039C58.4074 19.7718 58.2725 19.9034 58.0075 19.9034H55.3046C54.4712 19.9034 53.8785 20.0691 53.5365 20.3955C53.1896 20.722 53.021 21.3992 53.021 22.4127V29.005C53.021 29.273 52.8861 29.4094 52.6211 29.4094H51.5515C51.2865 29.4094 51.1516 29.2778 51.1516 29.005V18.5196C51.1516 18.2517 51.2817 18.1152 51.5515 18.1152H52.6259C52.8909 18.1152 53.0258 18.2517 53.0258 18.5196V19.5867C53.4594 18.6073 54.5145 18.1152 56.1815 18.1152Z" fill="#C7C7C7"/>
<path d="M65.2632 18.1152H67.0892C67.3542 18.1152 67.4891 18.2517 67.4891 18.5196V19.5039C67.4891 19.7718 67.3542 19.9034 67.0892 19.9034H64.3864C63.5529 19.9034 62.9603 20.0691 62.6182 20.3955C62.2713 20.722 62.1027 21.3992 62.1027 22.4127V29.005C62.1027 29.273 61.9678 29.4094 61.7028 29.4094H60.6284C60.3634 29.4094 60.2285 29.2778 60.2285 29.005V18.5196C60.2285 18.2517 60.3586 18.1152 60.6284 18.1152H61.7028C61.9678 18.1152 62.1027 18.2517 62.1027 18.5196V19.5867C62.5411 18.6073 63.5914 18.1152 65.2632 18.1152Z" fill="#C7C7C7"/>
<path d="M72.4562 29.4094C69.6763 29.4094 68.2839 28.3716 68.2839 26.2959C68.2839 25.185 68.5441 24.3762 69.0596 23.8646C69.5751 23.353 70.505 23.0266 71.8396 22.8804L76.7683 22.3396C77.1922 22.286 77.4042 22.018 77.4042 21.5356C77.4042 20.8925 77.2693 20.4589 76.9947 20.2396C76.7249 20.0203 76.1757 19.9083 75.3566 19.9083H69.5751C69.3102 19.9083 69.1801 19.7767 69.1801 19.5087V18.5245C69.1801 18.2565 69.3102 18.1201 69.5751 18.1201H75.3952C76.7972 18.1201 77.7945 18.3832 78.3871 18.9046C78.9749 19.4259 79.2736 20.2688 79.2736 21.4382V29.0147C79.2736 29.2827 79.1387 29.4191 78.8737 29.4191H77.7993C77.5343 29.4191 77.3994 29.2876 77.3994 29.0147V27.6894C77.1344 28.3034 76.7538 28.7467 76.2576 29.0147C75.7613 29.2827 74.9905 29.4191 73.945 29.4191H72.4562V29.4094ZM72.4562 27.6602H74.7014C75.7228 27.6602 76.4262 27.4653 76.8164 27.0755C77.2067 26.6857 77.4042 26.0085 77.4042 25.0437V23.9377L72.1383 24.498C71.3578 24.576 70.8326 24.7319 70.5676 24.9609C70.3026 25.1899 70.1726 25.5748 70.1726 26.1254C70.1677 27.1535 70.9338 27.6602 72.4562 27.6602Z" fill="#C7C7C7"/>
<path d="M88.8854 18.1152C90.4753 18.1152 91.5593 18.466 92.1326 19.1579C92.7108 19.8547 92.995 20.9948 92.995 22.5734V29.0245C92.995 29.2924 92.8601 29.4289 92.5952 29.4289H91.5208C91.2558 29.4289 91.1257 29.2973 91.1257 29.0245V22.4175C91.1257 21.3846 90.9763 20.7073 90.6776 20.3858C90.3789 20.0642 89.7719 19.9034 88.8613 19.9034H86.038C85.2045 19.9034 84.6119 20.0691 84.2698 20.3955C83.9229 20.7219 83.7543 21.3992 83.7543 22.4127V29.005C83.7543 29.2729 83.6194 29.4094 83.3544 29.4094H82.28C82.015 29.4094 81.8801 29.2778 81.8801 29.005V18.5196C81.8801 18.2517 82.0102 18.1152 82.28 18.1152H83.3544C83.6194 18.1152 83.7543 18.2517 83.7543 18.5196V19.5867C84.1927 18.6073 85.243 18.1201 86.9148 18.1201H88.8854V18.1152Z" fill="#C7C7C7"/>
<path d="M10.8066 24.9854L16.1834 22.2325C16.5158 22.062 16.6507 21.6527 16.4821 21.3165C16.3135 20.9803 15.9088 20.8439 15.5763 21.0145L10.1996 23.7673C9.86712 23.9379 9.73221 24.3472 9.90084 24.6833C10.0695 25.0195 10.479 25.1511 10.8066 24.9854Z" fill="#C7C7C7"/>
<path d="M11.6064 21.6529L16.9832 18.9C17.3156 18.7295 17.4505 18.3202 17.2819 17.984C17.1133 17.6478 16.7086 17.5114 16.3761 17.6819L10.9994 20.4348C10.6669 20.6054 10.532 21.0146 10.7006 21.3508C10.8693 21.687 11.274 21.8234 11.6064 21.6529Z" fill="#4470B4"/>
<path d="M10.0117 28.3136L15.3885 25.5607C15.7209 25.3901 15.8558 24.9809 15.6872 24.6447C15.5185 24.3085 15.1138 24.172 14.7814 24.3426L9.40463 27.0955C9.07219 27.266 8.93729 27.6753 9.10592 28.0115C9.27455 28.3477 9.67925 28.4841 10.0117 28.3136Z" fill="#4470B4"/>
<path d="M12.8735 6.79208C14.7281 6.79208 16.2315 5.27162 16.2315 3.39604C16.2315 1.52046 14.7281 0 12.8735 0C11.0188 0 9.51538 1.52046 9.51538 3.39604C9.51538 5.27162 11.0188 6.79208 12.8735 6.79208Z" fill="#C7C7C7"/>
<path d="M17.9516 12.1663C19.5268 12.1663 20.8038 10.8749 20.8038 9.2819C20.8038 7.68887 19.5268 6.39746 17.9516 6.39746C16.3763 6.39746 15.0994 7.68887 15.0994 9.2819C15.0994 10.8749 16.3763 12.1663 17.9516 12.1663Z" fill="#C7C7C7"/>
<path d="M20.847 16.6146C21.9832 16.6146 22.9043 15.6831 22.9043 14.5341C22.9043 13.3851 21.9832 12.4536 20.847 12.4536C19.7109 12.4536 18.7898 13.3851 18.7898 14.5341C18.7898 15.6831 19.7109 16.6146 20.847 16.6146Z" fill="#C7C7C7"/>
<path d="M21.3819 22.8759C22.4489 22.8759 23.3139 22.0011 23.3139 20.9221C23.3139 19.843 22.4489 18.9683 21.3819 18.9683C20.3149 18.9683 19.45 19.843 19.45 20.9221C19.45 22.0011 20.3149 22.8759 21.3819 22.8759Z" fill="#C7C7C7"/>
<path d="M19.2956 27.6992C20.1072 27.6992 20.7651 27.0339 20.7651 26.2131C20.7651 25.3924 20.1072 24.7271 19.2956 24.7271C18.4841 24.7271 17.8262 25.3924 17.8262 26.2131C17.8262 27.0339 18.4841 27.6992 19.2956 27.6992Z" fill="#C7C7C7"/>
<path d="M15.9472 31.0952C16.6896 31.0952 17.2914 30.4866 17.2914 29.7359C17.2914 28.9851 16.6896 28.3765 15.9472 28.3765C15.2048 28.3765 14.603 28.9851 14.603 29.7359C14.603 30.4866 15.2048 31.0952 15.9472 31.0952Z" fill="#C7C7C7"/>
<path d="M12.3291 32.6789C12.8612 32.6789 13.2926 32.2426 13.2926 31.7045C13.2926 31.1663 12.8612 30.73 12.3291 30.73C11.7969 30.73 11.3655 31.1663 11.3655 31.7045C11.3655 32.2426 11.7969 32.6789 12.3291 32.6789Z" fill="#C7C7C7"/>
<path d="M3.66631 35.7046C4.09471 35.7046 4.44199 35.3534 4.44199 34.9202C4.44199 34.487 4.09471 34.1357 3.66631 34.1357C3.23791 34.1357 2.89062 34.487 2.89062 34.9202C2.89062 35.3534 3.23791 35.7046 3.66631 35.7046Z" fill="#C7C7C7"/>
<path d="M0.71305 36.1532C1.10686 36.1532 1.4261 35.8303 1.4261 35.432C1.4261 35.0338 1.10686 34.7109 0.71305 34.7109C0.319243 34.7109 0 35.0338 0 35.432C0 35.8303 0.319243 36.1532 0.71305 36.1532Z" fill="#C7C7C7"/>
<path d="M13.5143 46.0001C15.3689 46.0001 16.8724 44.4796 16.8724 42.604C16.8724 40.7285 15.3689 39.208 13.5143 39.208C11.6597 39.208 10.1562 40.7285 10.1562 42.604C10.1562 44.4796 11.6597 46.0001 13.5143 46.0001Z" fill="#4470B4"/>
<path d="M8.43154 39.598C10.0068 39.598 11.2837 38.3066 11.2837 36.7135C11.2837 35.1205 10.0068 33.8291 8.43154 33.8291C6.85632 33.8291 5.57935 35.1205 5.57935 36.7135C5.57935 38.3066 6.85632 39.598 8.43154 39.598Z" fill="#4470B4"/>
<path d="M5.53576 33.5414C6.67195 33.5414 7.59301 32.6099 7.59301 31.4609C7.59301 30.3118 6.67195 29.3804 5.53576 29.3804C4.39958 29.3804 3.47852 30.3118 3.47852 31.4609C3.47852 32.6099 4.39958 33.5414 5.53576 33.5414Z" fill="#4470B4"/>
<path d="M5.00107 27.0273C6.06807 27.0273 6.93305 26.1525 6.93305 25.0734C6.93305 23.9944 6.06807 23.1196 5.00107 23.1196C3.93407 23.1196 3.06909 23.9944 3.06909 25.0734C3.06909 26.1525 3.93407 27.0273 5.00107 27.0273Z" fill="#4470B4"/>
<path d="M7.08714 21.268C7.8987 21.268 8.5566 20.6027 8.5566 19.782C8.5566 18.9612 7.8987 18.2959 7.08714 18.2959C6.27558 18.2959 5.61768 18.9612 5.61768 19.782C5.61768 20.6027 6.27558 21.268 7.08714 21.268Z" fill="#4470B4"/>
<path d="M10.4404 17.6236C11.1828 17.6236 11.7846 17.0149 11.7846 16.2642C11.7846 15.5134 11.1828 14.9048 10.4404 14.9048C9.69801 14.9048 9.09619 15.5134 9.09619 16.2642C9.09619 17.0149 9.69801 17.6236 10.4404 17.6236Z" fill="#4470B4"/>
<path d="M14.0539 15.2702C14.5861 15.2702 15.0175 14.8339 15.0175 14.2958C15.0175 13.7576 14.5861 13.3213 14.0539 13.3213C13.5217 13.3213 13.0903 13.7576 13.0903 14.2958C13.0903 14.8339 13.5217 15.2702 14.0539 15.2702Z" fill="#4470B4"/>
<path d="M22.7212 11.8643C23.1496 11.8643 23.4969 11.5131 23.4969 11.0799C23.4969 10.6466 23.1496 10.2954 22.7212 10.2954C22.2928 10.2954 21.9456 10.6466 21.9456 11.0799C21.9456 11.5131 22.2928 11.8643 22.7212 11.8643Z" fill="#4470B4"/>
<path d="M25.6698 11.2894C26.0636 11.2894 26.3829 10.9665 26.3829 10.5683C26.3829 10.17 26.0636 9.84717 25.6698 9.84717C25.276 9.84717 24.9568 10.17 24.9568 10.5683C24.9568 10.9665 25.276 11.2894 25.6698 11.2894Z" fill="#4470B4"/>
</g>
</svg>