<svg width="417" height="115" xmlns="http://www.w3.org/2000/svg" xmlns:xlink="http://www.w3.org/1999/xlink"><g id="Canvas" transform="translate(-3651 826)"><g id="Group"><use xlink:href="#path0_fill" transform="translate(3651 -826)" fill="#1A1B1C" id="Rectangle 2"/><use xlink:href="#path1_fill" transform="translate(3651 -814)" fill="url(#paint1_linear)" id="Subtract"/><use xlink:href="#path2_fill" transform="translate(3698.98 -811.554)" fill="url(#paint2_linear)" id="Subtract"/></g></g><defs><linearGradient id="paint1_linear" x2="1" gradientUnits="userSpaceOnUse" gradientTransform="matrix(205.507 .72511 -197.316 110.759 98.658 -23.912)"><stop offset="0" stop-color="#1444FF"/><stop offset="1" stop-color="#3D2FDE"/></linearGradient><linearGradient id="paint2_linear" x2="1" gradientUnits="userSpaceOnUse" gradientTransform="matrix(375.984 130 -372.108 402.272 179.085 -201.136)"><stop offset="0" stop-color="#FE3150"/><stop offset="1" stop-color="#FB5A29"/></linearGradient><path id="path0_fill" d="M0 0h417v90.5s-159.638-74-267-74c-70.5 0-150 27-150 27V0z"/><path id="path1_fill" fill-rule="evenodd" d="M232.342 6.853C203.041 2.369 114.832-11.13 0 19.446V38.94s101.245-40.608 190.543-27.4a404.72 404.72 0 0 1 25.058 4.533l24.324-8.127c-1.759-.202-4.302-.59-7.583-1.093z"/><path id="path2_fill" fill-rule="evenodd" d="M0 21.26c40.123-16.916 143.528-38.53 261.984 1.35 26.225 8.829 80.524 30.835 107.031 45.89v32.054S261.772 26.726 142.558 9.094C92.028 1.62 37.672 11.378 0 21.26z"/></defs></svg>